<svg xmlns="http://www.w3.org/2000/svg" viewBox="0 0 122.5 140">
    <path
        d=" M 61.25 140 C 70.908 140 78.742 132.166 78.742 122.5 L 43.758 122.5 C 43.758 132.166 51.592 140 61.25 140 Z  M 120.146 99.064 C 114.863 93.387 104.978 84.848 104.978 56.875 C 104.978 35.629 90.081 18.621 69.995 14.448 L 69.995 8.75 C 69.995 3.918 66.079 0 61.25 0 C 56.421 0 52.506 3.918 52.506 8.75 L 52.506 14.448 C 32.419 18.621 17.522 35.629 17.522 56.875 C 17.522 84.848 7.637 93.387 2.354 99.064 C 0.714 100.827 -0.013 102.936 0 105 C 0.03 109.484 3.549 113.75 8.778 113.75 L 113.723 113.75 C 118.951 113.75 122.473 109.484 122.5 105 C 122.514 102.936 121.787 100.825 120.146 99.064 L 120.146 99.064 Z "
        fill="rgb(255,255,255)" />
</svg>